# xmcd
#
# Track frame offsets:
#	150
#	17326
#	33527
#	54528
#	76579
#	97880
#	111306
#	134632
#	152108
#	167484
#	180085
#	199961
#	218937
#	233401
#	246685
#	259061
#	275112
#	289438
#	306623
#
# Disc length: 4324 seconds
#
# Revision: 1
# Processed by: cddbd v1.5.2PL0 Copyright (c) Steve Scherf et al.
# Submitted via: EasyCDDAExtractor 15.3.0.1
#
DISCID=1310e213
DTITLE=Yuri - Personalidad
DYEAR=2015
DGENRE=Latin
TTITLE0=No Puedo Mas
TTITLE1=El Apagon
TTITLE2=Detras De Mi Ventana
TTITLE3=Callados
TTITLE4=De Que Te Vale Fingir
TTITLE5=Hombres Al Borde De Un Ataque De Celos
TTITLE6=Todo Mi Corazon
TTITLE7=Lo Poquito Que Me Queda
TTITLE8=Cosas Del Amor
TTITLE9=La Boa
TTITLE10=Imposible Amarte Como Yo
TTITLE11=Mi Amor Es Para Ti
TTITLE12=Solo Le Pido A Dios
TTITLE13=Hola
TTITLE14=El Cascabel
TTITLE15=Que No Quede Huella
TTITLE16=Dejame Amarte Mas
TTITLE17=Asi Es La Vida
TTITLE18=Sabes Lo Que Pasa
EXTD=
EXTT0=
EXTT1=
EXTT2=
EXTT3=
EXTT4=
EXTT5=
EXTT6=
EXTT7=
EXTT8=
EXTT9=
EXTT10=
EXTT11=
EXTT12=
EXTT13=
EXTT14=
EXTT15=
EXTT16=
EXTT17=
EXTT18=
PLAYORDER=
